<svg width="311" height="655" viewBox="0 0 311 655" fill="none" xmlns="http://www.w3.org/2000/svg">
<g id="Body">
<g id="BodyL" clip-path="url(#clip0_14_3661)">
<path id="BodyL_2" fill-rule="evenodd" clip-rule="evenodd" d="M138.182 94.9942L146.19 112.753C147.535 115.702 153.941 128.396 152.724 130.897C151.507 131.281 150.354 129.807 149.329 129.102C145.742 126.473 141.321 115.125 139.528 110.702C138.503 108.073 137.285 105.252 136.453 102.752L135.556 104.162C135.428 105.765 139.143 114.099 139.976 116.023L145.357 127.242C138.631 126.217 115.889 122.947 110.06 120.511C107.689 119.485 102.116 117.497 100.515 116.408C99.3615 116.472 100.002 116.408 99.2974 116.664C99.0412 116.728 98.9771 116.792 98.6568 116.92C98.0803 117.241 98.4006 117.049 98.1443 117.241C102.5 119.164 107.241 121.28 111.853 123.011C117.939 125.255 137.67 126.986 144.396 128.781C145.677 129.102 147.023 129.55 147.92 130.192C148.304 130.512 150.034 131.987 150.354 132.371C150.61 132.564 156.632 143.399 142.859 136.731C140.553 135.577 138.695 134.679 136.261 133.718C130.239 131.474 126.267 131.474 119.605 131.153C114.031 130.833 108.074 130.256 103.205 128.396C98.7849 126.794 96.9272 122.819 93.8522 118.716L92.507 119.293C93.0194 120.959 97.5037 126.601 98.7209 127.691C101.091 129.935 105.511 131.281 109.291 131.666C109.035 135.513 107.305 147.438 106.152 150.515C104.486 155.067 101.027 160.837 98.5287 164.491C92.8273 172.762 89.5602 173.852 79.5667 177.955C78.7979 178.275 72.8403 180.904 72.0075 180.583C71.6872 181.032 71.8794 180.071 71.5591 181.353C71.3669 182.507 71.3028 181.609 71.6872 182.635V182.763C77.3886 181.096 90.8414 175.647 95.0694 171.415C97.4396 169.107 99.4255 165.966 100.13 165.261C102.629 168.979 103.013 181.994 102.565 187.572C102.372 189.816 101.732 192.829 101.796 194.816C101.475 196.163 101.924 198.278 102.372 199.176C104.614 191.034 104.999 179.942 103.525 171.351C101.475 159.811 98.2084 167.312 111.021 151.348C112.558 149.489 114.095 147.502 115.825 145.707C118.452 143.014 123.32 137.5 126.523 135.256C129.534 133.141 131.008 133.654 134.531 134.872C137.221 135.833 139.335 136.859 141.834 138.077C145.742 139.937 145.293 138.975 147.023 143.27C151.059 153.015 149.329 170.71 149.009 182.058C148.688 193.213 146.895 210.716 151.123 220.653C150.418 221.294 147.471 222.641 146.254 223.538C141.513 227 138.567 230.719 134.403 234.95C128.829 240.528 120.63 243.541 112.366 243.605V245.208C115.825 245.4 119.348 244.888 122.423 243.862C123.833 243.413 125.306 242.836 126.587 242.195C127.997 241.618 129.022 240.784 130.495 240.272L129.983 252.645L110.06 252.902L109.163 254.504L129.918 254.312C129.726 262.326 129.47 269.635 129.662 277.649C129.854 285.406 130.239 293.228 130.431 301.05C125.69 299.575 114.48 288.612 110.06 285.15C107.689 283.355 105.511 281.624 101.604 281.431L101.027 283.098C107.049 282.906 114.095 291.048 119.477 295.472C120.63 296.433 121.783 297.331 123.064 298.293C125.626 300.28 127.804 301.498 130.559 303.229L131.264 321.886C129.086 320.732 122.039 312.141 119.797 309.448C118.516 307.974 117.363 306.435 116.145 304.896C113.711 301.947 106.216 292.33 102.821 290.407C101.988 289.958 100.579 289.702 99.874 289.253C99.6177 289.574 99.7458 289.253 99.4896 290.022C99.2333 290.663 99.3615 290.151 99.2974 290.984C103.077 291.753 104.743 293.997 106.472 295.985C107.433 297.075 108.458 297.78 108.907 299.639C113.647 318.167 121.655 349.005 124.153 365.738C126.331 380.548 128.445 395.037 129.662 410.104C130.303 418.054 130.111 426.452 130.367 434.53C130.495 438.505 130.687 442.48 130.815 446.391C130.943 450.238 131.328 454.79 131.2 458.572C129.47 458.059 127.484 456.713 125.755 455.944C117.555 452.225 112.238 454.02 105.383 456.841C104.935 457.867 105.063 459.021 105.063 460.496L105.319 458.38C109.099 457.867 114.288 453.187 123.897 456.969C126.908 458.123 128.765 459.726 131.648 460.56C135.556 461.714 138.118 459.854 140.809 462.483C141.065 462.291 140.873 462.547 141.129 461.842C141.193 461.521 141.321 461.073 141.385 460.752C140.232 460.239 139.399 459.406 137.862 459.277C136.196 459.149 134.403 459.662 132.929 458.957C132.032 444.596 131.968 429.786 131.648 415.361C131.392 402.731 128.894 387.408 127.164 374.97C125.306 361.699 123 349.903 119.925 337.401C116.978 325.412 114.031 313.359 111.085 301.627C111.661 301.883 121.078 313.551 122.295 315.026L131.328 324.835C131.584 325.861 131.392 329.195 131.776 330.99C132.417 334.067 133.954 337.209 135.492 339.645C137.99 343.748 144.524 348.492 147.471 352.852C148.56 354.455 149.137 356.699 151.635 358.301C151.827 358.43 152.276 358.686 152.532 358.878L153.621 359.584L156.76 359.52C161.052 359.135 162.846 354.198 164.127 352.403C166.177 349.518 168.739 347.146 171.238 344.966C173.864 342.658 175.53 340.607 177.452 336.632C179.822 331.823 179.758 330.092 179.95 324.322C183.025 322.271 187.445 316.757 190.328 313.487C192.314 311.243 198.528 302.845 200.065 301.691C199.745 304.383 198.592 307.974 197.887 310.666C197.182 313.615 196.414 316.693 195.709 319.77C192.89 331.054 189.367 344.71 187.125 355.929C184.434 369.264 179.886 403.436 179.63 415.489C179.309 429.658 179.502 445.045 178.348 459.021C176.747 459.726 174.825 459.085 173.095 459.342C171.11 459.598 170.661 460.688 169.252 461.201C169.316 462.098 169.252 461.842 169.572 462.419C170.213 462.868 169.572 462.547 170.469 462.74C173.031 459.662 175.466 461.65 179.438 460.624C184.178 459.406 187.253 454.982 196.542 455.623C200.449 455.88 202.179 457.611 205.254 458.252C205.254 457.931 205.318 457.482 205.254 457.162L204.998 456.457C200.578 455.174 199.104 453.059 191.545 454.149C185.523 454.982 182.705 457.931 180.078 458.508C179.95 451.135 180.591 442.288 180.911 434.787C181.231 426.837 180.975 418.438 181.552 410.488C182.705 395.743 184.883 380.741 187.061 366.315C189.559 349.71 196.414 323.296 200.898 305.73C202.051 300.985 201.923 299.062 204.293 296.69C205.959 294.959 208.009 291.689 211.34 291.176C211.212 290.599 211.019 290.086 210.763 289.574C205.959 290.599 197.887 301.242 194.876 305.281C192.442 308.358 183.281 319.578 180.078 321.95L180.719 303.293C181.808 302.46 183.281 301.819 184.498 300.985L201.218 287.266C203.46 285.47 205.51 283.739 209.354 283.034C209.354 281.88 209.418 282.393 209.034 281.624C203.588 281.431 196.35 289.574 191.353 293.677C190.136 294.638 189.175 295.536 188.022 296.433C186.164 297.844 183.153 300.152 180.911 301.114L181.616 278.226C181.808 269.955 181.616 262.518 181.359 254.312L201.218 254.504C201.026 253.607 200.962 253.607 200.642 252.902L181.231 252.517L180.911 240.207C183.473 241.426 185.523 242.836 188.79 243.862C189.751 244.182 197.823 246.298 198.271 244.695L198.079 242.772C197.951 243.798 198.143 243.157 197.695 243.605C192.826 243.477 189.303 242.515 185.523 240.784C181.295 238.861 175.658 234.181 172.711 230.847L169.124 226.936C165.728 223.346 162.141 222.128 160.155 220.653C161.308 217.32 162.013 216.422 162.461 212.191C163.166 203.984 162.654 190.008 162.333 181.737C161.885 170.582 160.347 152.759 164.255 143.078C165.921 139.039 166.049 139.616 169.828 137.885C172.391 136.667 174.441 135.641 177.195 134.743C180.911 133.589 182.064 133.397 185.011 135.449C188.598 138.013 197.503 147.822 200.385 151.477C212.749 167.312 209.93 159.555 207.816 171.223C206.727 177.25 206.663 183.212 207.24 189.303C207.56 192.124 208.329 195.265 208.521 197.765L209.034 195.393L209.866 196.547C209.418 190.905 208.393 186.546 208.521 180.327C208.649 175.198 209.482 169.62 211.019 165.197C211.98 166.094 212.685 167.376 213.582 168.466C214.543 169.749 215.247 170.646 216.272 171.608C219.988 175.262 234.978 181.609 239.206 182.571C239.078 181.93 238.886 181.096 238.63 180.583C236.067 180.006 225.946 175.583 223.447 174.3C220.757 172.89 218.963 171.928 217.041 170.005C213.198 166.222 206.663 155.131 204.998 150.066C203.845 146.668 202.307 135.641 201.987 131.666C210.955 130.704 216.208 125.96 219.604 120.447C219.476 119.998 219.988 120.382 219.155 119.87C218.707 119.613 218.963 119.741 218.322 119.613C215.632 123.332 213.069 126.601 207.816 128.525C196.285 132.692 185.459 129.55 174.569 133.91C170.917 135.385 163.166 139.872 160.732 138.847C158.105 137.821 159.194 130.384 167.778 128.525C172.903 127.435 179.053 126.858 184.37 125.96C194.62 124.165 205.702 122.049 215.44 118.331C214.927 118.01 213.518 117.433 212.877 117.241C211.212 118.203 204.293 119.934 201.987 120.639C196.157 122.306 184.562 124.293 178.22 125.319C174.249 125.96 169.7 126.73 165.985 127.178C166.561 125.511 167.907 123.396 168.739 121.665L175.914 104.996L174.505 103.585C172.967 108.329 170.213 114.676 168.163 119.036C166.946 121.536 165.793 124.165 164.383 126.345C163.486 127.755 160.347 131.089 158.682 131.025C157.465 128.909 160.091 123.844 160.924 121.729C162.141 118.78 171.558 97.3022 172.455 96.2123V92.8785C171.75 92.4938 170.789 95.5712 170.149 96.9816L159.451 121.088C157.272 126.217 156.824 126.601 156.696 131.41L154.518 131.346C154.71 126.858 153.109 124.165 151.507 120.511L140.424 96.7252C139.464 94.4813 139.015 92.622 137.926 92.4297C137.926 93.8401 138.182 93.8401 138.182 94.9942Z" fill="#FFFCFB"/>
</g>
<g id="RThigh" clip-path="url(#clip1_14_3661)">
<path id="RThigh_2" fill-rule="evenodd" clip-rule="evenodd" d="M105.38 456.838C112.235 454.017 117.552 452.222 125.752 455.94C127.481 456.71 129.467 458.056 131.197 458.569C131.325 454.786 130.941 450.234 130.812 446.388C130.684 442.477 130.492 438.502 130.364 434.527C130.108 426.449 130.3 418.05 129.659 410.1C128.442 395.034 126.328 380.545 124.15 365.735C121.652 349.002 113.644 318.164 108.904 299.636C108.455 297.776 107.43 297.071 106.469 295.981C104.74 293.994 103.074 291.75 99.2945 290.98C98.9742 291.622 98.782 292.327 98.5258 293.16C96.8602 298.994 94.3618 301.815 93.3369 308.868C92.8244 312.522 92.6962 316.048 92.2478 319.638C91.7994 323.036 91.2869 327.075 90.9025 330.537C89.9416 339.257 89.1088 349.643 89.4291 359.003C89.4932 362.145 91.1588 371.89 91.6713 375.031C92.8244 381.955 93.8493 388.879 95.1306 395.354L104.996 445.682C106.341 452.606 105.38 450.875 105.38 456.838Z" fill="#FBBF9C"/>
</g>
<g id="LThigh" clip-path="url(#clip2_14_3661)">
<path id="LThigh_2" fill-rule="evenodd" clip-rule="evenodd" d="M204.995 456.452C204.995 449.656 204.034 452.67 205.507 445.489L215.309 395.482C217.487 383.942 218.896 376.184 220.434 364.58L221.266 353.424L220.177 336.499C219.921 334.511 219.921 332.845 219.729 330.857C218.832 323.933 218.063 316.56 217.231 309.508C216.206 301.43 212.298 295.916 211.337 291.172C208.006 291.685 205.956 294.954 204.29 296.685C201.92 299.058 202.048 300.981 200.895 305.725C196.411 323.292 189.556 349.706 187.058 366.311C184.88 380.736 182.702 395.738 181.549 410.484C180.972 418.434 181.228 426.832 180.908 434.782C180.588 442.283 179.947 451.131 180.075 458.504C182.702 457.927 185.52 454.978 191.542 454.144C199.101 453.054 200.575 455.17 204.995 456.452Z" fill="#FBBF9C"/>
</g>
<g id="RChest" clip-path="url(#clip3_14_3661)">
<path id="RChest_2" fill-rule="evenodd" clip-rule="evenodd" d="M102.371 199.175C103.396 203.919 107.303 206.163 107.624 207.381C107.88 208.215 107.688 212.831 107.688 213.985C107.688 216.806 108.521 223.473 109.289 226.102C111.339 233.347 112.364 233.859 112.364 243.604C120.628 243.54 128.828 240.527 134.401 234.949C138.565 230.718 141.512 226.999 146.252 223.537C147.469 222.64 150.416 221.294 151.121 220.652C146.893 210.715 148.687 193.213 149.007 182.057C149.327 170.709 151.057 153.014 147.021 143.269C145.291 138.974 145.74 139.936 141.832 138.076C139.334 136.858 137.22 135.832 134.529 134.871C131.006 133.653 129.532 133.14 126.522 135.255C123.319 137.499 118.45 143.013 115.823 145.706C114.094 147.501 112.556 149.488 111.019 151.348C98.2067 167.311 101.474 159.81 103.524 171.35C104.997 179.941 104.613 191.033 102.371 199.175Z" fill="#FBBF9C"/>
</g>
<g id="LChest" clip-path="url(#clip4_14_3661)">
<path id="LChest_2" fill-rule="evenodd" clip-rule="evenodd" d="M198.076 242.768C197.5 237.511 199.998 230.203 201.279 225.715C202.945 220.265 202.945 213.662 202.945 206.738C204.034 206.417 204.162 205.968 204.803 205.135C206.276 203.211 208.262 201.224 208.518 197.762C208.326 195.262 207.557 192.12 207.237 189.299C206.66 183.209 206.725 177.246 207.814 171.22C209.928 159.551 212.746 167.309 200.383 151.473C197.5 147.819 188.595 138.01 185.008 135.445C182.061 133.394 180.908 133.586 177.193 134.74C174.438 135.638 172.388 136.663 169.826 137.882C166.046 139.613 165.918 139.036 164.252 143.075C160.345 152.755 161.882 170.579 162.33 181.734C162.651 190.004 163.163 203.981 162.459 212.187C162.01 216.419 161.305 217.316 160.152 220.65C162.138 222.124 165.726 223.343 169.121 226.933L172.708 230.844C175.655 234.177 181.292 238.858 185.52 240.781C189.3 242.512 192.823 243.474 197.692 243.602C198.14 243.153 197.948 243.794 198.076 242.768Z" fill="#FBBF9C"/>
</g>
<g id="face" clip-path="url(#clip5_14_3661)">
<path id="face_2" fill-rule="evenodd" clip-rule="evenodd" d="M137.345 92.9757C138.178 93.4886 137.473 92.9757 137.922 93.6168C139.011 93.8092 139.459 95.6684 140.42 97.9123L151.502 121.698C153.104 125.352 154.705 128.045 154.513 132.533L156.691 132.597C156.819 127.788 157.268 127.404 159.446 122.275L170.144 98.1688C170.785 96.7583 171.746 93.6809 172.45 94.0656C172.707 93.7451 172.835 94.5785 172.707 93.1681C171.618 79.5764 171.233 78.9993 175.974 68.8056C178.985 62.3944 177.96 64.3177 180.522 63.7407C182.636 60.2787 184.366 53.8034 182.7 49.2515C181.611 46.2382 179.689 47.264 178.6 44.3149C177.831 42.0068 177.96 39.3141 177.191 36.942C176.55 34.7622 175.013 33.3517 174.18 30.9796C173.283 28.351 172.45 27.197 170.977 25.466C168.094 22.1963 165.66 19.5677 162.265 16.875C159.766 17.8367 157.652 19.183 154.577 20.0806C151.566 20.9782 148.492 20.8499 145.353 21.6193C130.939 25.3378 134.078 38.9295 128.697 48.4821C127.416 50.726 126.647 54.0599 126.391 56.8808C125.494 65.1512 129.273 62.7791 130.106 64.0613L135.487 77.0119L137.729 91.1165C137.857 92.9116 137.601 92.7834 137.345 92.9757Z" fill="#FBBF9C"/>
</g>
<g id="RCrus" clip-path="url(#clip6_14_3661)">
<path id="RCrus_2" fill-rule="evenodd" clip-rule="evenodd" d="M106.533 626.22C111.722 624.874 113.26 622.374 117.872 620.707C119.986 619.937 122.741 619.553 125.367 620.001C127.93 620.386 129.467 621.412 131.517 622.181C131.517 620.578 131.261 620.322 131.197 618.976C131.133 617.309 131.453 616.86 131.517 615.514C131.966 607.243 129.659 600.832 129.211 595.19C126.969 592.369 123.253 577.752 122.292 572.751C116.527 543.131 122.164 520.115 123.702 490.944C114.413 491.585 110.697 491.714 102.754 488.188C100.704 498.125 99.5508 513.448 99.5508 523.962C99.5508 539.156 102.626 562.108 105.444 576.79C106.469 582.047 107.815 587.817 108.519 593.203C109.865 603.589 104.419 610.256 105.188 613.911C105.444 615.257 107.558 617.886 107.046 621.797C106.918 622.822 106.533 625.066 106.533 626.22Z" fill="#FBBF9C"/>
</g>
<g id="LCrus" clip-path="url(#clip7_14_3661)">
<path id="LCrus_2" fill-rule="evenodd" clip-rule="evenodd" d="M180.845 597.95C180.141 601.733 179.5 605.836 179.116 610.003C178.731 615.004 179.756 618.338 178.859 622.826C182.767 620.646 186.867 618.722 192.504 620.453C196.604 621.672 198.526 623.659 200.896 624.813C201.985 625.39 202.946 625.582 204.099 626.288C202.562 616.35 204.74 616.863 205.188 613.978C205.509 612.311 205.06 610.901 204.676 609.747C200.192 596.027 202.049 591.86 204.996 576.921C208.199 560.894 210.762 541.147 210.762 524.286C210.762 512.425 210.569 508.707 209.096 496.91L207.879 488.062L206.854 488.96C206.726 489.024 206.021 489.281 205.829 489.345C205.06 489.665 204.42 489.922 203.651 490.114C197.181 492.102 193.85 491.076 187.636 491.012C187.444 494.538 188.404 501.205 188.725 505.116C190.839 530.633 193.786 549.225 188.468 575.19C187.379 580.64 183.472 594.488 180.845 597.95Z" fill="#FBBF9C"/>
</g>
<g id="InnerLThigh" clip-path="url(#clip8_14_3661)">
<path id="InnerLThigh_2" fill-rule="evenodd" clip-rule="evenodd" d="M156.758 359.516L158.231 372.339C159.192 380.353 160.858 388.944 162.203 396.829C163.228 402.728 166.303 429.142 166.623 435.104L168.545 454.658C168.673 455.684 168.801 457.095 168.865 457.864C168.993 458.89 169.25 460.364 169.25 461.198C170.659 460.685 171.107 459.595 173.093 459.338C174.823 459.082 176.745 459.723 178.346 459.018C179.499 445.042 179.307 429.655 179.628 415.486C179.884 403.433 184.432 369.261 187.123 355.926C189.365 344.707 192.888 331.051 195.707 319.767C196.411 316.69 197.18 313.612 197.885 310.663C198.59 307.97 199.743 304.38 200.063 301.688C198.525 302.842 192.312 311.24 190.326 313.484C187.443 316.754 183.023 322.267 179.948 324.319C179.756 330.089 179.82 331.82 177.449 336.628C175.528 340.603 173.862 342.655 171.236 344.963C168.737 347.143 166.175 349.515 164.125 352.4C162.844 354.195 161.05 359.132 156.758 359.516Z" fill="#FBBF9C"/>
</g>
<g id="Hair" clip-path="url(#clip9_14_3661)">
<path id="Hair_2" fill-rule="evenodd" clip-rule="evenodd" d="M137.346 92.9732C137.602 92.7808 137.859 92.909 137.73 91.1139L135.488 77.0093L130.107 64.0587C129.274 62.7765 125.495 65.1486 126.392 56.8782C126.648 54.0573 127.417 50.7235 128.698 48.4796C134.079 38.9269 130.94 25.3352 145.354 21.6167C148.493 20.8474 151.568 20.9756 154.578 20.078C157.653 19.1805 159.767 17.8341 162.266 16.8724C165.661 19.5651 168.095 22.1937 170.978 25.4634C172.451 27.1944 173.284 28.3484 174.181 30.977C175.014 33.3492 176.551 34.7596 177.192 36.9394C177.961 39.3116 177.833 42.0043 178.601 44.3123C179.69 47.2614 181.612 46.2356 182.701 49.2489C184.367 53.8008 182.637 60.2761 180.523 63.7382C177.961 64.3152 178.986 62.3918 175.975 68.803C171.234 78.9968 171.619 79.5738 172.708 93.1655C175.783 92.5244 181.932 87.9083 183.982 85.8567C193.015 76.7529 190.004 67.7131 191.285 55.9165L191.926 47.2614C192.118 42.3248 192.438 43.6712 190.773 39.6962C188.979 35.2084 187.698 30.5282 185.712 26.1686C184.687 23.9247 183.79 21.9373 182.893 19.6934C181.996 17.5136 181.036 15.5261 179.818 13.4104C176.743 8.21734 176.743 6.74277 170.786 3.85774C167.134 2.12672 160.664 0.652146 155.796 0.0110276C154.514 -0.117196 149.518 0.908593 147.916 1.22915C144.265 1.99849 137.282 4.1783 134.912 6.80688C132.029 9.94836 126.776 20.8474 125.303 25.0787C123.701 29.6948 121.971 33.2209 120.114 38.7346C119.025 41.8119 118.128 42.2607 118.64 46.1715C118.832 47.4538 118.961 49.4412 119.025 50.467C119.089 52.198 119.281 53.0315 119.281 54.8266C119.345 56.5576 119.601 57.1988 119.601 59.1862C119.537 72.265 119.217 81.6254 131.132 89.5111C132.99 90.7934 135.104 92.0115 137.346 92.9732Z" fill="black"/>
</g>
<g id="InnerRThigh" clip-path="url(#clip10_14_3661)">
<path id="InnerRThigh_2" fill-rule="evenodd" clip-rule="evenodd" d="M141.301 460.126C141.301 458.138 141.685 455.766 141.941 453.714C143.607 438.648 144.824 423.646 146.554 408.644C147.515 400.373 148.924 392.231 150.333 384.217C151.679 376.011 152.832 367.805 153.536 358.957L152.447 358.252C152.191 358.06 151.743 357.803 151.551 357.675C149.052 356.072 148.476 353.828 147.387 352.225C144.44 347.866 137.906 343.121 135.407 339.018C133.87 336.582 132.332 333.441 131.692 330.363C131.307 328.568 131.499 325.234 131.243 324.208L122.211 314.399C120.993 312.925 111.577 301.256 111 301C113.947 312.732 116.894 324.785 119.84 336.774C122.915 349.276 125.222 361.073 127.079 374.344C128.809 386.782 131.307 402.104 131.564 414.734C131.884 429.16 131.948 443.969 132.845 458.33C134.318 459.036 136.112 458.523 137.777 458.651C139.315 458.779 140.148 459.613 141.301 460.126Z" fill="#FBBF9C"/>
</g>
<g id="CStomach" clip-path="url(#clip11_14_3661)">
<path id="CStomach_2" fill-rule="evenodd" clip-rule="evenodd" d="M132.157 302.071C136.193 304.892 149.39 307.072 155.604 307.072C161.946 307.008 174.694 305.021 179.05 302.007C179.242 296.237 181.1 258.668 179.498 254.308C174.95 254.052 132.35 253.731 131.709 254.565C130.364 256.552 131.965 296.43 132.157 302.071Z" fill="#FBBF9C"/>
</g>
<g id="RPalm" clip-path="url(#clip12_14_3661)">
<path id="RPalm_2" fill-rule="evenodd" clip-rule="evenodd" d="M47.3409 325.025C45.7394 324.448 43.8176 323.294 42.2161 322.589C40.2943 321.691 38.8209 321.178 36.899 320.601C33.6319 319.512 28.7633 318.101 25.24 317.652C22.2932 318.742 19.6667 320.345 17.3605 322.012L10.506 327.397C7.94354 329.577 4.7405 335.924 2.49837 337.719C0.704669 339.13 0 338.296 0 341.566C2.62649 343.297 2.49837 343.489 7.62324 339.899C8.90445 339.066 9.73724 338.296 10.9544 337.399C12.4278 336.309 13.3247 335.219 14.4777 335.155C14.4777 343.618 12.4278 350.734 8.77633 357.915C8.32791 358.876 7.94354 359.261 7.55918 360.158C7.11075 360.864 6.72639 361.697 6.34202 362.466C6.08578 363.044 2.56243 368.878 7.23887 368.878C11.6591 368.814 17.1042 352.016 19.4745 351.696C19.7948 351.696 19.9229 351.696 20.1151 351.824C21.5885 352.722 19.5386 356.248 18.6417 358.492C17.937 360.223 17.4245 361.697 16.7199 363.492C15.8871 365.48 12.9403 372.596 13.0684 374.327C13.1965 376.635 14.4777 377.853 16.848 377.853C17.3605 376.892 17.8089 376.315 18.3855 375.353C18.962 374.327 19.2823 373.494 19.7948 372.468L25.0478 360.8C26.1368 358.235 26.5852 355.607 28.1227 355.222C29.2758 357.53 26.0728 369.647 25.5603 374.391C25.304 376.571 24.7915 379.392 28.0586 378.687C31.9664 377.853 31.582 370.609 31.9023 367.66C32.1585 365.287 33.1835 356.696 34.8491 355.478C39.013 356.632 34.8491 376.892 43.2411 374.968C43.2411 372.724 43.3051 370.48 43.2411 368.237C43.2411 366.698 42.9848 366.57 42.9207 365.095C42.4083 347.721 42.8567 355.542 45.9316 337.527C46.5082 334.065 47.3409 328.872 47.3409 325.025Z" fill="#FBBF9C"/>
</g>
<g id="LPalm" clip-path="url(#clip13_14_3661)">
<path id="LPalm_2" fill-rule="evenodd" clip-rule="evenodd" d="M263.355 327.845L265.918 345.027C267.135 352.143 268.737 355.092 267.519 363.17C267.263 364.773 267.519 366.312 267.327 367.915C267.199 368.684 266.751 373.877 267.391 374.71C267.776 375.223 268.48 375.287 269.249 375.095C273.477 373.685 273.029 365.222 273.797 359.58C274.054 357.657 274.63 356.951 274.95 355.477H276.104C276.616 357.721 276.936 357.721 277.705 361.76C278.154 364.132 278.538 366.504 278.73 368.876C279.05 372.531 278.794 376.185 281.549 378.237C282.766 379.07 283.535 378.749 284.816 378.429C285.777 374.326 283.022 363.876 282.125 358.17C281.869 356.31 282.061 356.887 282.189 355.22C283.599 355.541 283.471 356.182 284.047 357.4L288.019 366.504C288.467 367.466 288.788 368.299 289.3 369.325C290.966 372.659 291.863 374.903 293.848 377.852C295.642 377.852 296.091 377.595 296.731 376.377C298.333 373.492 296.539 370.543 295.002 366.504C294.169 364.196 290.069 354.579 290.005 353.425C289.877 351.374 290.966 351.117 291.991 352.4C293.336 354.002 299.23 367.402 302.433 368.684C303.97 369.261 304.931 368.235 305.7 367.658C305.7 364.196 304.995 363.811 302.945 360.029C300.062 354.9 298.076 350.54 296.923 344.514C296.091 340.218 296.026 339.192 296.155 335.153C299.23 335.859 306.276 344.578 309.671 342.334C310.568 341.757 311.657 339.962 309.095 338.423C306.532 336.884 303.97 332.333 302.24 329.896C300.511 327.524 295.45 323.549 292.888 321.818L287.442 318.484C283.086 319.254 278.282 320.664 274.246 322.267C272.26 323.1 270.21 323.998 268.48 324.96C266.687 325.857 265.149 327.075 263.355 327.845Z" fill="#FBBF9C"/>
</g>
<g id="LBiceps" clip-path="url(#clip14_14_3661)">
<path id="LBiceps_2" fill-rule="evenodd" clip-rule="evenodd" d="M209.864 196.546C210.056 197.764 210.377 198.021 210.761 198.918C211.145 199.687 211.402 200.457 211.786 201.354L217.936 215.523C221.267 223.216 222.292 221.678 222.997 230.846C223.125 232.769 223.701 234.885 224.15 236.616C225.175 235.975 227.737 232.897 229.018 231.679C230.684 230.205 232.478 228.602 234.399 227.191C237.923 224.499 242.599 221.485 248.813 221.742C247.916 220.78 245.226 215.267 244.841 213.6C244.585 212.317 244.649 209.24 244.457 207.894C244.265 205.97 243.944 204.239 243.688 202.572L240.549 187.378C240.229 186.096 239.652 183.595 239.204 182.57C234.976 181.608 219.986 175.261 216.27 171.606C215.245 170.645 214.541 169.747 213.58 168.465C212.683 167.375 211.978 166.093 211.017 165.195C209.48 169.619 208.647 175.197 208.519 180.326C208.391 186.545 209.416 190.904 209.864 196.546Z" fill="#FBBF9C"/>
</g>
<g id="RBiceps" clip-path="url(#clip15_14_3661)">
<path id="RBiceps_2" fill-rule="evenodd" clip-rule="evenodd" d="M71.6857 182.632C70.6607 183.466 70.4045 186.094 70.0842 187.376C69.6357 189.107 69.1873 190.774 68.867 192.313C68.0983 195.839 67.5217 199.173 66.8171 202.699C66.1764 205.776 66.0483 207.764 65.8561 210.777L65.728 213.278C65.4718 214.752 64.703 216.547 64.0624 217.701L61.8203 221.676C67.9702 221.484 72.9028 224.112 76.3621 226.741C77.9636 227.895 80.398 229.883 81.551 231.165C83.0244 232.768 84.626 234.37 86.4837 235.973C86.8681 233.986 87.4446 232.062 87.6368 229.947C88.0212 225.972 88.0212 225.074 89.6868 221.548L99.424 199.878C99.8084 198.981 100.129 198.34 100.449 197.442C100.833 196.416 101.026 195.519 101.794 194.813C101.73 192.826 102.371 189.813 102.563 187.569C103.011 181.991 102.627 168.976 100.129 165.258C99.424 165.963 97.4381 169.105 95.0679 171.413C90.8399 175.644 77.3871 181.093 71.6857 182.76V182.632Z" fill="#FBBF9C"/>
</g>
<g id="RBRL" clip-path="url(#clip16_14_3661)">
<path id="RBRL_2" fill-rule="evenodd" clip-rule="evenodd" d="M119.217 164.681C113.516 165.899 108.07 168.271 107.814 174.49C107.366 185.518 108.263 201.097 117.423 207.764C127.993 215.458 138.884 210.201 144.905 199.814C147.276 195.647 146.699 185.453 145.738 180.324C144.521 173.593 141.51 170.259 136.898 167.63C132.285 164.938 125.367 163.335 119.217 164.681Z" fill="#FFFCFB"/>
</g>
<g id="LBRL" clip-path="url(#clip17_14_3661)">
<path id="LBRL_2" fill-rule="evenodd" clip-rule="evenodd" d="M184.303 164.422C177.641 165.32 173.605 167.884 169.953 171.41C166.302 175.065 165.341 181.476 165.213 188.144C165.085 196.222 165.789 200.132 170.274 204.556C174.053 208.211 178.345 212.121 184.944 211.416C197.051 210.07 202.24 199.555 203.649 187.246C204.034 183.72 203.906 180.45 203.906 176.796C203.842 172.5 203.585 171.09 201.215 168.654C197.692 165.063 190.837 163.589 184.303 164.422Z" fill="#FFFCFB"/>
</g>
<g id="LForearm" clip-path="url(#clip18_14_3661)">
<path id="LForearm_2" fill-rule="evenodd" clip-rule="evenodd" d="M228.762 249.309C230.748 254.246 240.165 273.03 242.535 277.262L249.71 290.982C255.731 303.227 258.998 306.048 262.266 320.217C262.714 322.076 262.842 324.384 263.355 326.051C272.067 321.242 269.184 322.461 278.729 318.934C278.153 316.626 272.836 303.804 271.554 300.47C267.583 290.533 252.785 254.438 250.158 245.719C246.699 246.488 243.944 250.912 228.762 249.309Z" fill="#FBBF9C"/>
</g>
<g id="LSura" clip-path="url(#clip19_14_3661)">
<path id="LSura_2" fill-rule="evenodd" clip-rule="evenodd" d="M181.166 593.01C183.152 590.894 186.867 575.186 187.636 571.083C189.174 562.492 189.942 553.645 189.878 544.605C189.878 535.565 188.853 526.59 188.149 517.614C187.38 508.703 186.547 499.919 185.907 491.008L173.735 489.148C173.158 489.79 173.671 488.828 173.415 489.79C173.287 490.174 173.351 490.174 173.287 490.559C172.71 496.65 171.557 502.676 170.788 508.703C170.468 511.139 170.404 512.998 170.019 515.498C168.802 525.051 169.059 533.129 172.39 542.041C175.721 550.76 179.116 569.993 180.269 578.969C180.846 583.649 181.166 587.752 181.166 593.01Z" fill="#FBBF9C"/>
</g>
<g id="RForearm" clip-path="url(#clip20_14_3661)">
<path id="RForearm_2" fill-rule="evenodd" clip-rule="evenodd" d="M47.5973 323.358C49.6472 313.036 49.6472 313.805 53.1706 305.535L70.531 272.389C72.3888 268.671 80.9089 252.579 81.5495 249.373C77.5777 249.822 73.9903 249.886 70.0186 249.053C64.3171 247.834 63.6765 246.488 61.2422 245.719C60.2173 247.45 58.6157 252.835 57.7829 255.015C52.3378 269.632 45.4833 284.891 39.5256 299.509C38.3725 302.265 32.9914 315.28 32.8633 317.652C38.6288 318.999 42.8568 321.05 47.5973 323.358Z" fill="#FBBF9C"/>
</g>
<g id="RSura" clip-path="url(#clip21_14_3661)">
<path id="RSura_2" fill-rule="evenodd" clip-rule="evenodd" d="M129.213 590.898C129.213 584.487 131.391 571.28 132.48 565.061C133.889 556.791 135.875 549.033 138.374 541.596C139.463 538.263 140.808 533.775 140.808 529.543C140.808 524.799 141 519.67 140.424 515.375L137.028 489.281L125.626 490.82C124.729 493.192 123.576 512.426 123.255 516.465C121.654 535.762 119.988 549.29 123.255 568.844C124.152 573.973 127.099 587.565 129.213 590.898Z" fill="#FBBF9C"/>
</g>
<g id="LBreast" clip-path="url(#clip22_14_3661)">
<path id="LBreast_2" fill-rule="evenodd" clip-rule="evenodd" d="M185.584 165.963C178.025 166.797 170.274 170.579 168.031 178.208C167.263 181.029 167.006 184.235 166.878 187.248C166.622 195.134 166.878 198.34 171.042 202.956C173.605 205.712 178.153 210.136 184.047 209.816C190.004 209.495 194.36 206.097 196.731 202.892C201.279 196.673 202.496 186.671 202.24 178.529C202.176 175.003 202.688 172.759 200.574 170.451C197.563 166.989 191.734 165.322 185.584 165.963Z" fill="#FBBF9C"/>
</g>
<g id="RBreast" clip-path="url(#clip23_14_3661)">
<path id="RBreast_2" fill-rule="evenodd" clip-rule="evenodd" d="M120.693 166.091C115.119 166.924 109.674 169.104 109.482 174.746C109.162 184.363 109.866 200.198 117.938 206.097C127.611 213.085 137.284 209.366 143.242 199.301C145.676 195.262 145.036 186.607 144.267 181.478C143.306 175.002 140.744 171.925 136.644 169.361C132.48 166.796 126.458 165.257 120.693 166.091Z" fill="#FBBF9C"/>
</g>
<g id="RBrachialis" clip-path="url(#clip24_14_3661)">
<path id="RBrachialis_2" fill-rule="evenodd" clip-rule="evenodd" d="M72.0039 180.58C72.8367 180.901 78.7944 178.272 79.5631 177.951C89.5566 173.848 92.8237 172.758 98.5251 164.488C101.023 160.834 104.483 155.063 106.148 150.512C107.301 147.434 109.031 135.509 109.287 131.663C105.508 131.278 101.088 129.932 98.7173 127.688C97.5001 126.598 93.0159 120.956 92.5034 119.289C88.98 121.597 90.3253 119.802 87.3785 124.226C82.8302 131.022 80.0756 137.497 78.5381 146.152C77.5131 151.986 77.5772 158.782 76.8725 164.873C75.9757 172.502 72.2601 177.182 72.0039 180.58Z" fill="#FBBF9C"/>
</g>
<g id="LBrachialis" clip-path="url(#clip25_14_3661)">
<path id="LBrachialis_2" fill-rule="evenodd" clip-rule="evenodd" d="M238.627 180.582L235.937 173.402C232.285 163.977 233.502 157.053 232.093 147.629C230.684 137.82 227.16 129.1 221.267 121.535C220.69 120.766 220.626 120.638 219.601 120.445C216.206 125.959 210.953 130.703 201.984 131.665C202.305 135.64 203.842 146.667 204.995 150.065C206.661 155.13 213.195 166.221 217.039 170.004C218.96 171.927 220.754 172.889 223.445 174.299C225.943 175.581 236.065 180.005 238.627 180.582Z" fill="#FBBF9C"/>
</g>
<g id="Abdomen" clip-path="url(#clip26_14_3661)">
<path id="Abdomen_2" fill-rule="evenodd" clip-rule="evenodd" d="M131.774 252.644L167.84 252.451C171.107 252.515 176.553 252.9 179.563 252.515C179.628 248.733 179.307 244.565 179.179 240.719C179.115 237.641 177.962 238.603 173.35 233.731C170.339 230.589 163.42 222.703 159.128 222.447C156.694 224.691 155.541 226.037 152.145 222.383C149.199 222.832 146.188 225.781 144.394 227.191C142.921 228.345 142.344 228.858 141.191 230.333C138.885 233.089 136.066 235.782 133.183 238.09C132.287 238.795 132.223 238.603 132.094 240.142C131.902 243.668 131.582 249.246 131.774 252.644Z" fill="#FBBF9C"/>
</g>
<g id="Hipogastrik" clip-path="url(#clip27_14_3661)">
<path id="Hipogastrik_2" fill-rule="evenodd" clip-rule="evenodd" d="M178.281 325.057L179.05 305.375C177.256 305.696 172.708 307.555 167.903 308.581C164.187 309.35 159.191 310.055 155.347 309.991C142.407 309.735 133.502 305.375 132.285 305.375C132.285 308.709 132.477 312.043 132.67 315.441C133.054 325.698 131.132 324.416 139.652 329.93C141.702 331.276 144.457 332.687 147.019 333.584C156.5 336.982 163.355 335.059 171.939 329.737C174.565 328.071 176.679 326.083 178.281 325.057Z" fill="#FBBF9C"/>
</g>
<g id="RGenu" clip-path="url(#clip28_14_3661)">
<path id="RGenu_2" fill-rule="evenodd" clip-rule="evenodd" d="M105.06 460.491L104.804 470.813C104.676 474.916 103.074 484.789 103.074 486.52C105.252 487.161 107.238 488.379 109.993 489.02C112.94 489.726 116.207 489.726 119.346 489.597C125.175 489.341 131.389 488.571 137.026 487.546C137.026 482.737 137.795 479.596 138.628 475.044L140.806 462.478C138.115 459.849 135.553 461.709 131.645 460.555C128.763 459.721 126.905 458.118 123.894 456.964C114.285 453.182 109.096 457.862 105.316 458.375L105.06 460.491Z" fill="#FBBF9C"/>
</g>
<g id="LGenu" clip-path="url(#clip29_14_3661)">
<path id="LGenu_2" fill-rule="evenodd" clip-rule="evenodd" d="M169.57 462.414C169.634 463.311 169.955 464.465 170.083 465.299C171.3 471.261 173.606 482.16 173.606 487.61C176.169 487.674 185.586 489.277 191.223 489.533C194.17 489.725 197.437 489.854 200.191 489.277C203.33 488.635 205.06 487.674 207.558 486.904C207.558 485.558 207.302 484.789 207.11 483.506C206.918 482.16 206.854 481.455 206.662 480.173C205.637 473.056 206.021 475.492 205.829 469.338C205.829 467.863 205.572 467.607 205.572 465.876C205.508 462.927 205.252 460.875 205.252 458.246C202.177 457.605 200.448 455.874 196.54 455.618C187.251 454.977 184.176 459.4 179.436 460.619C175.464 461.644 173.03 459.657 170.467 462.734C169.57 462.542 170.211 462.862 169.57 462.414Z" fill="#FBBF9C"/>
</g>
<g id="RStomach" clip-path="url(#clip30_14_3661)">
<path id="RStomach_2" fill-rule="evenodd" clip-rule="evenodd" d="M101.602 281.428C105.509 281.62 107.687 283.351 110.058 285.146C114.478 288.608 125.688 299.572 130.429 301.046C130.237 293.224 129.852 285.403 129.66 277.645C129.468 269.631 129.724 262.323 129.916 254.309L109.161 254.501C108.584 256.553 107.559 258.604 106.855 260.527C104.805 266.233 104.356 268.029 102.947 274.055C102.498 275.914 101.602 279.633 101.602 281.428Z" fill="#FBBF9C"/>
</g>
<g id="LStomach" clip-path="url(#clip31_14_3661)">
<path id="LStomach_2" fill-rule="evenodd" clip-rule="evenodd" d="M209.033 281.62C209.033 280.274 208.648 279.12 208.456 277.902L206.919 270.785C206.534 269.567 206.214 268.413 205.894 267.387C204.997 264.182 202.627 256.745 201.217 254.501L181.359 254.309C181.615 262.515 181.807 269.952 181.615 278.222L180.91 301.11C183.152 300.149 186.163 297.841 188.021 296.43C189.174 295.532 190.135 294.635 191.352 293.673C196.349 289.57 203.588 281.428 209.033 281.62Z" fill="#FBBF9C"/>
</g>
<g id="LDorsum" clip-path="url(#clip32_14_3661)">
<path id="LDorsum_2" fill-rule="evenodd" clip-rule="evenodd" d="M178.535 624.939C178.535 630.58 175.46 639.684 178.151 646.416C178.855 648.211 179.304 648.724 180.201 650.135C181.097 651.481 181.994 652.25 183.275 653.212C184.877 654.366 186.158 654.879 187.183 655.007H188.208C189.81 654.815 190.642 653.597 191.347 652.955C192.5 653.084 194.358 654.366 197.049 653.789C198.009 653.533 198.073 653.597 198.266 652.699C199.611 652.699 199.739 653.02 200.636 653.276C202.173 653.661 201.341 653.084 202.622 653.084C203.391 653.148 205.184 654.43 207.298 652.443C208.644 651.096 208.9 651.93 210.117 649.429L211.59 644.749C211.718 643.531 209.925 642.377 209.284 641.095C208.067 638.594 204.992 630.26 204.415 627.695C200.123 627.375 196.664 623.528 192.308 622.118C189.746 621.284 186.735 621.284 184.236 622.054C181.738 622.823 180.585 623.913 178.535 624.939Z" fill="#FBBF9C"/>
</g>
<g id="RDorsum" clip-path="url(#clip33_14_3661)">
<path id="RDorsum_2" fill-rule="evenodd" clip-rule="evenodd" d="M105.956 628.081C105.828 629.299 102.049 639.942 101.216 641.224C98.4612 645.584 98.3972 642.186 99.5503 646.866C99.8065 647.892 99.8706 648.341 100.319 649.302C101.216 651.161 103.33 653.149 105.252 653.405C106.405 653.598 106.213 653.534 107.558 653.085C109.159 652.572 107.878 653.341 109.672 653.277C110.697 653.213 110.889 652.7 112.362 652.7C112.683 654.046 113.772 653.918 115.565 653.854C117.551 653.79 117.551 653.341 119.025 652.957C120.242 653.79 120.498 654.944 122.1 655.008H122.548C122.676 655.008 122.868 655.008 122.997 654.944C127.545 654.303 130.812 650.2 132.542 646.161C134.143 642.378 133.374 639.621 133.246 635.262L131.773 624.106C130.364 623.914 128.121 622.183 125.367 621.67C122.932 621.221 120.37 621.606 118.064 622.439C113.259 624.17 112.042 626.799 105.956 628.081Z" fill="#FBBF9C"/>
</g>
<g id="sternum" clip-path="url(#clip34_14_3661)">
<path id="sternum_2" fill-rule="evenodd" clip-rule="evenodd" d="M147.727 141.698C148.175 143.173 148.816 144.327 149.264 145.737C149.712 147.276 149.969 148.943 150.225 150.61C150.673 153.687 151.378 158.047 151.378 161.124C151.57 175.164 149.905 190.615 150.161 206.451C150.225 209.592 150.353 214.273 151.058 217.093C153.748 227.095 158.104 225.3 160.218 217.093C161.051 213.888 161.051 209.977 161.115 206.451C161.243 198.822 160.987 191.192 160.667 183.563C160.218 171.318 158.425 151.828 163.614 141.826C161.115 141.634 159.77 142.147 158.489 140.223C157.272 138.236 158.104 136.184 158.489 134.133L152.787 134.197C153.94 139.262 153.556 142.403 147.727 141.698Z" fill="#FBBF9C"/>
</g>
<g id="Genital" clip-path="url(#clip35_14_3661)">
<path id="Genital_2" fill-rule="evenodd" clip-rule="evenodd" d="M178.217 326.051C173.861 329 173.732 329.705 168.287 332.462C165.34 333.937 159.511 336.052 155.603 335.988C150.03 335.988 142.215 332.462 137.73 329.513C136.577 328.679 133.951 326.5 133.054 326.179C132.926 334.193 136.833 339.771 141.958 344.451C143.175 345.541 144.136 346.759 145.289 347.785C146.699 349.131 147.403 349.964 148.557 351.503C149.646 352.978 150.094 354.581 151.247 355.799C152.08 356.632 154.002 358.235 155.603 358.235C157.013 358.235 159.191 356.696 159.895 355.991C160.92 355.029 161.625 353.042 162.586 351.696C168.287 343.81 178.409 339.835 178.217 326.051Z" fill="#FBBF9C"/>
</g>
<g id="RArticulatio" clip-path="url(#clip36_14_3661)">
<path id="RArticulatio_2" fill-rule="evenodd" clip-rule="evenodd" d="M53.1055 236.486C54.3867 237.127 58.2944 242.512 64.5724 245.526C70.6581 248.411 75.3346 248.09 82.4453 247.641L84.4312 243.025C84.9437 241.679 85.9046 239.435 85.9046 237.768C84.5593 236.678 82.1891 234.242 80.9719 232.896C79.4345 231.229 77.5767 229.754 75.6549 228.344C70.8503 224.625 68.416 223.856 60.985 223.215C60.1522 224.369 59.6397 225.395 58.935 226.485C58.2303 227.51 57.5257 228.664 56.8851 229.69C55.6038 231.806 54.1304 234.178 53.1055 236.486Z" fill="#FBBF9C"/>
</g>
<g id="LArticulatio" clip-path="url(#clip37_14_3661)">
<path id="LArticulatio_2" fill-rule="evenodd" clip-rule="evenodd" d="M224.727 238.667C224.855 240.013 225.687 241.936 226.136 243.09C226.456 243.924 226.712 244.373 227.033 245.142C227.353 245.975 227.609 246.681 227.93 247.514C233.887 247.578 237.859 249.181 245.867 245.911C249.454 244.437 255.988 239.436 257.654 236.679L249.454 223.023L247.212 223.408C245.034 223.6 243.048 224.049 241.126 224.947C235.809 227.319 227.994 234.499 224.727 238.667Z" fill="#FBBF9C"/>
</g>
<g id="Lshoulder" clip-path="url(#clip38_14_3661)">
<path id="Lshoulder_2" fill-rule="evenodd" clip-rule="evenodd" d="M212.873 118.425C210.054 117.207 197.819 113.937 193.975 112.847C188.85 111.437 180.266 108.936 175.91 106.18L168.735 122.849C167.902 124.58 166.557 126.695 165.98 128.362C169.696 127.914 174.244 127.144 178.216 126.503C184.558 125.477 196.153 123.49 201.983 121.823C204.289 121.118 211.207 119.387 212.873 118.425Z" fill="#FBBF9C"/>
</g>
<g id="RShoulder" clip-path="url(#clip39_14_3661)">
<path id="RShoulder_2" fill-rule="evenodd" clip-rule="evenodd" d="M100.512 117.593C102.113 118.683 107.687 120.67 110.057 121.696C115.886 124.132 138.628 127.402 145.354 128.428L139.973 117.208C139.14 115.285 135.425 106.95 135.553 105.348C134.144 106.373 134.656 106.373 132.094 107.656C128.698 109.451 113.964 113.618 109.608 114.836C107.558 115.413 101.857 116.824 100.512 117.593Z" fill="#FBBF9C"/>
</g>
<g id="RManubrium" clip-path="url(#clip40_14_3661)">
<path id="RManubrium_2" fill-rule="evenodd" clip-rule="evenodd" d="M93.8516 118.713C96.9265 122.816 98.7842 126.791 103.204 128.394C108.073 130.253 114.031 130.83 119.604 131.151C126.266 131.471 130.238 131.471 136.26 133.715C138.694 134.677 140.552 135.574 142.858 136.728C156.631 143.396 150.609 132.561 150.353 132.369C150.033 131.984 148.303 130.509 147.919 130.189C147.022 129.548 145.677 129.099 144.396 128.778C137.669 126.983 117.938 125.252 111.853 123.008C107.24 121.277 102.5 119.162 98.1436 117.238C96.7984 117.367 95.1328 118.392 93.8516 118.713Z" fill="#FBBF9C"/>
</g>
<g id="LManubrium" clip-path="url(#clip41_14_3661)">
<path id="LManubrium_2" fill-rule="evenodd" clip-rule="evenodd" d="M218.319 120.798C218.062 120.541 218.19 120.606 217.806 120.413C217.422 120.157 217.55 120.221 217.037 120.029C216.333 119.772 216.269 119.708 215.436 119.516C205.699 123.234 194.616 125.35 184.366 127.145C179.049 128.042 172.899 128.62 167.775 129.709C159.19 131.569 158.101 139.006 160.728 140.031C163.162 141.057 170.914 136.569 174.565 135.095C185.455 130.735 196.282 133.877 207.813 129.709C213.066 127.786 215.628 124.516 218.319 120.798Z" fill="#FBBF9C"/>
</g>
<g id="RAbduktor" clip-path="url(#clip42_14_3661)">
<path id="RAbduktor_2" fill-rule="evenodd" clip-rule="evenodd" d="M99.8711 289.252C100.576 289.701 101.985 289.957 102.818 290.406C106.213 292.329 113.708 301.946 116.143 304.895C117.36 306.434 118.513 307.972 119.794 309.447C122.036 312.14 129.083 320.731 131.261 321.885L130.556 303.228C127.802 301.497 125.624 300.279 123.061 298.292C121.78 297.33 120.627 296.432 119.474 295.471C114.093 291.047 107.046 282.905 101.024 283.097C101.024 285.469 99.8711 287.072 99.8711 289.252Z" fill="#FBBF9C"/>
</g>
<g id="LAbduktor" clip-path="url(#clip43_14_3661)">
<path id="LAbduktor_2" fill-rule="evenodd" clip-rule="evenodd" d="M210.759 289.571C210.311 287.455 209.798 285.275 209.35 283.031C205.506 283.736 203.456 285.467 201.214 287.263L184.494 300.983C183.277 301.816 181.804 302.457 180.715 303.291L180.074 321.947C183.277 319.575 192.438 308.355 194.872 305.278C197.883 301.239 205.955 290.596 210.759 289.571Z" fill="#FBBF9C"/>
</g>
<g id="ROuterForearm" clip-path="url(#clip44_14_3661)">
<path id="ROuterForearm_2" fill-rule="evenodd" clip-rule="evenodd" d="M26.7109 316.305L31.0671 317.138C33.5014 310.791 35.5513 304.765 38.1138 298.61C40.6121 292.519 42.9824 286.942 45.5448 280.787L56.4992 253.732C57.3961 251.424 59.2538 246.872 59.7023 244.564C58.421 243.602 56.6914 242.32 55.6664 241.358C54.5133 240.204 53.3602 238.794 52.2712 237.832C51.5025 239.178 50.6697 240.717 50.2213 242.192L46.1214 263.926C45.737 265.785 45.2886 267.452 44.9042 269.439C44.1995 272.901 43.3027 276.684 42.4058 280.018C40.8043 286.301 38.5622 293.609 36.0638 299.508C34.6545 302.777 32.9889 305.021 31.3233 307.842C30.5546 309.124 29.6577 310.278 28.889 311.817C28.1203 313.42 27.4156 314.766 26.7109 316.305Z" fill="#FBBF9C"/>
</g>
<g id="LOuterForearm" clip-path="url(#clip45_14_3661)">
<path id="LOuterForearm_2" fill-rule="evenodd" clip-rule="evenodd" d="M284.559 317.396C284.046 316.562 283.918 316.306 283.469 315.344C279.049 305.471 276.807 307.523 271.426 291.302C267.326 278.993 263.675 261.747 261.497 248.668C261.24 247.193 260.984 244.565 260.536 242.962L258.294 238.41C256.372 240.911 254.322 242.257 251.695 244.501C251.887 246.937 263.931 277.198 265.853 281.814L280.459 318.422L284.559 317.396Z" fill="#FBBF9C"/>
</g>
<g id="LCrL" clip-path="url(#clip46_14_3661)">
<path id="LCrL_2" fill-rule="evenodd" clip-rule="evenodd" d="M173.602 487.611L173.73 489.15L185.901 491.009C186.542 499.921 187.375 508.704 188.143 517.616C188.848 526.591 189.873 535.567 189.873 544.607C189.937 553.647 189.168 562.494 187.631 571.085C186.862 575.188 183.147 590.896 181.161 593.011C181.161 593.845 181.225 594.935 181.161 595.768C181.097 596.666 180.84 596.922 180.84 597.948C183.467 594.486 187.375 580.638 188.464 575.188C193.781 549.223 190.834 530.631 188.72 505.114C188.4 501.203 187.439 494.536 187.631 491.009C193.845 491.074 197.176 492.099 203.646 490.112C204.415 489.92 205.055 489.663 205.824 489.342C206.016 489.278 206.721 489.022 206.849 488.958L207.874 488.06C207.81 486.97 207.938 487.547 207.554 486.906C205.055 487.676 203.326 488.637 200.187 489.278C197.432 489.855 194.165 489.727 191.218 489.535C185.581 489.278 176.164 487.676 173.602 487.611Z" fill="#FFFCFB"/>
</g>
<g id="LFrL" clip-path="url(#clip47_14_3661)">
<path id="LFrL_2" fill-rule="evenodd" clip-rule="evenodd" d="M227.93 247.515C228.122 248.22 228.378 248.797 228.762 249.31C243.945 250.913 246.7 246.489 250.159 245.719C252.785 254.439 267.583 290.534 271.555 300.471C272.836 303.805 278.153 316.627 278.73 318.935C269.185 322.461 272.068 321.243 263.355 326.052V327.847C265.149 327.077 266.686 325.859 268.48 324.962C270.21 324 272.26 323.102 274.246 322.269C278.281 320.666 283.086 319.256 287.442 318.486C286.609 317.973 285.584 317.717 284.559 317.396L280.46 318.422L265.854 281.814C263.932 277.198 251.888 246.938 251.696 244.501C254.323 242.257 256.373 240.911 258.295 238.411C258.23 237.449 258.102 237.449 257.654 236.68C255.988 239.436 249.454 244.437 245.867 245.912C237.859 249.181 233.887 247.579 227.93 247.515Z" fill="#FFFCFB"/>
</g>
<g id="RCrL" clip-path="url(#clip48_14_3661)">
<path id="RCrL_2" fill-rule="evenodd" clip-rule="evenodd" d="M102.754 488.19C110.698 491.716 114.413 491.588 123.702 490.947C122.164 520.118 116.527 543.134 122.293 572.754C123.253 577.755 126.969 592.372 129.211 595.193V590.897C127.097 587.564 124.15 573.972 123.253 568.843C119.986 549.289 121.652 535.761 123.253 516.464C123.574 512.425 124.727 493.191 125.624 490.819L137.027 489.28V487.549C131.389 488.575 125.175 489.344 119.346 489.601C116.207 489.729 112.94 489.729 109.993 489.024C107.238 488.383 105.252 487.165 103.074 486.523C102.69 487.293 102.754 487.036 102.754 488.19Z" fill="#FFFCFB"/>
</g>
<g id="RFL" clip-path="url(#clip49_14_3661)">
<path id="RFL_2" fill-rule="evenodd" clip-rule="evenodd" d="M52.2719 237.831C53.361 238.792 54.5141 240.203 55.6672 241.357C56.6921 242.319 58.4218 243.601 59.703 244.562C59.2546 246.87 57.3968 251.422 56.5 253.73L45.5456 280.786C42.9831 286.94 40.6129 292.518 38.1145 298.609C35.5521 304.763 33.5021 310.79 31.0678 317.137L26.7117 316.304C26.2633 316.881 25.8148 317.265 25.2383 317.65C28.7616 318.099 33.6302 319.509 36.8974 320.599C38.8192 321.176 40.2926 321.689 42.2144 322.587C43.8159 323.292 45.7377 324.446 47.3393 325.023C47.5314 324.638 47.4674 324.959 47.5314 324.382C47.5955 323.997 47.5955 323.741 47.5955 323.356C42.855 321.048 38.627 318.996 32.8615 317.65C32.9896 315.278 38.3707 302.263 39.5238 299.506C45.4815 284.889 52.336 269.63 57.7812 255.013C58.614 252.833 60.2155 247.447 61.2405 245.716C63.6748 246.486 64.3154 247.832 70.0168 249.05C73.9886 249.884 77.576 249.82 81.5477 249.371C81.9321 249.05 81.5477 249.756 82.0602 248.794C82.3805 248.153 82.3165 248.345 82.4446 247.64C75.3338 248.089 70.6574 248.409 64.5716 245.524C58.2937 242.511 54.386 237.125 53.1047 236.484C52.8485 236.741 53.0407 236.42 52.6563 237.061C52.5282 237.254 52.336 237.702 52.2719 237.831Z" fill="#FFFCFB"/>
</g>
<g id="LNeck" clip-path="url(#clip50_14_3661)">
<path id="LNeck_2" fill-rule="evenodd" clip-rule="evenodd" d="M174.503 103.584C174.119 102.366 173.606 101.725 173.158 100.314C172.645 98.7754 172.453 98.1343 172.453 96.2109C171.556 97.3008 162.139 118.778 160.922 121.727C160.089 123.843 157.463 128.908 158.68 131.024C160.345 131.088 163.484 127.754 164.381 126.343C165.791 124.164 166.944 121.535 168.161 119.035C170.211 114.675 172.965 108.328 174.503 103.584Z" fill="#FBBF9C"/>
</g>
<g id="RArcus" clip-path="url(#clip51_14_3661)">
<path id="RArcus_2" fill-rule="evenodd" clip-rule="evenodd" d="M112.361 245.202L111.848 246.933C111.336 249.498 110.119 251.742 110.055 252.896L129.978 252.639L130.49 240.266C129.017 240.779 127.992 241.612 126.582 242.189C125.301 242.83 123.828 243.407 122.418 243.856C119.344 244.882 115.82 245.395 112.361 245.202Z" fill="#FBBF9C"/>
</g>
<g id="RNeck" clip-path="url(#clip52_14_3661)">
<path id="RNeck_2" fill-rule="evenodd" clip-rule="evenodd" d="M136.449 102.75C137.282 105.25 138.499 108.071 139.524 110.7C141.318 115.123 145.738 126.471 149.325 129.1C150.35 129.805 151.504 131.279 152.721 130.895C153.938 128.394 147.532 115.7 146.186 112.751L138.179 94.9922C138.179 96.4026 137.923 98.2619 137.666 99.2877C137.346 100.89 136.77 101.467 136.449 102.75Z" fill="#FBBF9C"/>
</g>
<g id="LArcus" clip-path="url(#clip53_14_3661)">
<path id="LArcus_2" fill-rule="evenodd" clip-rule="evenodd" d="M200.641 252.897C199.808 251.423 198.271 246.871 198.271 244.691C197.822 246.294 189.751 244.178 188.79 243.857C185.523 242.832 183.473 241.421 180.91 240.203L181.23 252.513L200.641 252.897Z" fill="#FBBF9C"/>
</g>
<g id="RSAL" clip-path="url(#clip54_14_3661)">
<path id="RSAL_2" fill-rule="evenodd" clip-rule="evenodd" d="M60.9844 223.213C68.4154 223.854 70.8497 224.623 75.6543 228.342C77.5761 229.752 79.4339 231.227 80.9714 232.894C82.1885 234.24 84.5588 236.676 85.904 237.766L86.4806 235.971C84.6228 234.368 83.0213 232.765 81.5479 231.163C80.3948 229.88 77.9605 227.893 76.359 226.739C72.8997 224.11 67.967 221.482 61.8172 221.674C61.2406 222.315 61.1766 222.315 60.9844 223.213Z" fill="#FFFCFB"/>
</g>
<g id="LSAL" clip-path="url(#clip55_14_3661)">
<path id="LSAL_2" fill-rule="evenodd" clip-rule="evenodd" d="M224.148 236.616C224.212 237.385 224.148 237.065 224.277 237.642C224.341 237.77 224.405 238.026 224.469 238.09C224.725 238.924 224.469 238.347 224.725 238.667C227.992 234.5 235.808 227.32 241.125 224.947C243.046 224.05 245.032 223.601 247.21 223.409L249.452 223.024C249.132 222.255 249.196 222.383 248.812 221.742C242.598 221.485 237.922 224.499 234.398 227.191C232.476 228.602 230.683 230.205 229.017 231.679C227.736 232.897 225.173 235.975 224.148 236.616Z" fill="#FFFCFB"/>
</g>
<g id="LSFL" clip-path="url(#clip56_14_3661)">
<path id="LSFL_2" fill-rule="evenodd" clip-rule="evenodd" d="M178.859 622.823C178.859 624.17 178.859 623.977 178.539 624.939C180.589 623.913 181.742 622.823 184.24 622.054C186.739 621.285 189.75 621.285 192.312 622.118C196.668 623.528 200.128 627.375 204.42 627.696C204.227 627.055 204.163 627.055 204.099 626.285C202.946 625.58 201.985 625.388 200.896 624.811C198.526 623.657 196.604 621.669 192.504 620.451C186.867 618.72 182.767 620.643 178.859 622.823Z" fill="#FFFCFB"/>
</g>
<g id="RSFL" clip-path="url(#clip57_14_3661)">
<path id="RSFL_2" fill-rule="evenodd" clip-rule="evenodd" d="M106.534 626.222L105.957 628.082C112.043 626.799 113.26 624.171 118.065 622.44C120.371 621.606 122.933 621.222 125.367 621.671C128.122 622.183 130.364 623.914 131.774 624.107C131.774 622.953 131.902 623.017 131.517 622.183C129.467 621.414 127.93 620.388 125.367 620.004C122.741 619.555 119.986 619.94 117.872 620.709C113.26 622.376 111.723 624.876 106.534 626.222Z" fill="#FFFCFB"/>
</g>
<g id="UpperRChest" clip-path="url(#clip58_14_3661)">
<path id="UpperRChest_2" fill-rule="evenodd" clip-rule="evenodd" d="M106.406 154.294C106.662 153.781 107.944 152.499 108.52 151.794C109.353 150.832 110.058 149.871 110.891 148.909C113.517 145.896 120.307 138.138 123.446 135.574L126.329 133.137L110.955 132.176C110.25 136.471 109.161 145.575 108.2 149.422C107.752 151.345 106.855 152.692 106.406 154.294Z" fill="#FBBF9C"/>
</g>
<g id="UpperLChest" clip-path="url(#clip59_14_3661)">
<path id="UpperLChest_2" fill-rule="evenodd" clip-rule="evenodd" d="M184.754 133.201C185.266 133.714 186.996 134.868 187.509 135.317C190.199 137.368 197.822 145.895 200.193 148.716L204.869 154.294C203.716 149.806 203.652 153.268 202.114 143.908C201.474 139.997 200.897 136.022 200.321 132.047L184.754 133.201Z" fill="#FBBF9C"/>
</g>
</g>
<defs>
<clipPath id="clip0_14_3661">
<rect width="167.8" height="370.31" fill="white" transform="translate(71.4062 92.4297)"/>
</clipPath>
<clipPath id="clip1_14_3661">
<rect width="41.8632" height="167.588" fill="white" transform="translate(89.3594 290.98)"/>
</clipPath>
<clipPath id="clip2_14_3661">
<rect width="41.2078" height="167.332" fill="white" transform="translate(180.059 291.172)"/>
</clipPath>
<clipPath id="clip3_14_3661">
<rect width="49.5428" height="109.792" fill="white" transform="translate(101.578 133.812)"/>
</clipPath>
<clipPath id="clip4_14_3661">
<rect width="49.5219" height="109.719" fill="white" transform="translate(160.152 133.883)"/>
</clipPath>
<clipPath id="clip5_14_3661">
<rect width="57.1128" height="115.722" fill="white" transform="translate(126.254 16.875)"/>
</clipPath>
<clipPath id="clip6_14_3661">
<rect width="32.0239" height="138.033" fill="white" transform="translate(99.5508 488.188)"/>
</clipPath>
<clipPath id="clip7_14_3661">
<rect width="31.9023" height="138.225" fill="white" transform="translate(178.859 488.062)"/>
</clipPath>
<clipPath id="clip8_14_3661">
<rect width="43.3051" height="159.51" fill="white" transform="translate(156.758 301.688)"/>
</clipPath>
<clipPath id="clip9_14_3661">
<rect width="73.5926" height="93.1655" fill="white" transform="translate(118.492)"/>
</clipPath>
<clipPath id="clip10_14_3661">
<rect width="42.5364" height="159.126" fill="white" transform="translate(111 301)"/>
</clipPath>
<clipPath id="clip11_14_3661">
<rect width="48.9683" height="53.0449" fill="white" transform="translate(131.176 254.027)"/>
</clipPath>
<clipPath id="clip12_14_3661">
<rect width="47.341" height="61.1448" fill="white" transform="translate(0 317.652)"/>
</clipPath>
<clipPath id="clip13_14_3661">
<rect width="47.3319" height="60.2824" fill="white" transform="translate(263.355 318.484)"/>
</clipPath>
<clipPath id="clip14_14_3661">
<rect width="40.3053" height="71.4206" fill="white" transform="translate(208.508 165.195)"/>
</clipPath>
<clipPath id="clip15_14_3661">
<rect width="40.9044" height="70.7153" fill="white" transform="translate(61.8203 165.258)"/>
</clipPath>
<clipPath id="clip16_14_3661">
<rect width="38.8503" height="47.2356" fill="white" transform="translate(107.723 164.195)"/>
</clipPath>
<clipPath id="clip17_14_3661">
<rect width="38.7269" height="47.304" fill="white" transform="translate(165.199 164.195)"/>
</clipPath>
<clipPath id="clip18_14_3661">
<rect width="49.9674" height="80.3321" fill="white" transform="translate(228.762 245.719)"/>
</clipPath>
<clipPath id="clip19_14_3661">
<rect width="20.5305" height="103.861" fill="white" transform="translate(169.352 489.148)"/>
</clipPath>
<clipPath id="clip20_14_3661">
<rect width="48.6862" height="77.6394" fill="white" transform="translate(32.8633 245.719)"/>
</clipPath>
<clipPath id="clip21_14_3661">
<rect width="19.4598" height="101.617" fill="white" transform="translate(121.379 489.281)"/>
</clipPath>
<clipPath id="clip22_14_3661">
<rect width="35.4636" height="44.004" fill="white" transform="translate(166.809 165.828)"/>
</clipPath>
<clipPath id="clip23_14_3661">
<rect width="35.5383" height="43.8232" fill="white" transform="translate(109.422 165.863)"/>
</clipPath>
<clipPath id="clip24_14_3661">
<rect width="37.2834" height="61.3179" fill="white" transform="translate(72.0039 119.289)"/>
</clipPath>
<clipPath id="clip25_14_3661">
<rect width="36.6428" height="60.1369" fill="white" transform="translate(201.984 120.445)"/>
</clipPath>
<clipPath id="clip26_14_3661">
<rect width="47.857" height="30.3012" fill="white" transform="translate(131.715 222.383)"/>
</clipPath>
<clipPath id="clip27_14_3661">
<rect width="46.7644" height="29.9053" fill="white" transform="translate(132.285 305.375)"/>
</clipPath>
<clipPath id="clip28_14_3661">
<rect width="37.7318" height="34.1625" fill="white" transform="translate(103.074 455.5)"/>
</clipPath>
<clipPath id="clip29_14_3661">
<rect width="37.9881" height="34.1406" fill="white" transform="translate(169.57 455.555)"/>
</clipPath>
<clipPath id="clip30_14_3661">
<rect width="28.8274" height="46.7375" fill="white" transform="translate(101.602 254.309)"/>
</clipPath>
<clipPath id="clip31_14_3661">
<rect width="28.1227" height="46.8016" fill="white" transform="translate(180.91 254.309)"/>
</clipPath>
<clipPath id="clip32_14_3661">
<rect width="34.55" height="33.5227" fill="white" transform="translate(177.047 621.484)"/>
</clipPath>
<clipPath id="clip33_14_3661">
<rect width="34.699" height="33.5277" fill="white" transform="translate(98.8438 621.48)"/>
</clipPath>
<clipPath id="clip34_14_3661">
<rect width="15.8871" height="89.8051" fill="white" transform="translate(147.727 134.133)"/>
</clipPath>
<clipPath id="clip35_14_3661">
<rect width="45.1686" height="32.1841" fill="white" transform="translate(133.051 326.051)"/>
</clipPath>
<clipPath id="clip36_14_3661">
<rect width="32.7991" height="24.719" fill="white" transform="translate(53.1055 223.215)"/>
</clipPath>
<clipPath id="clip37_14_3661">
<rect width="32.9273" height="24.9395" fill="white" transform="translate(224.727 223.023)"/>
</clipPath>
<clipPath id="clip38_14_3661">
<rect width="46.8925" height="22.1827" fill="white" transform="translate(165.98 106.18)"/>
</clipPath>
<clipPath id="clip39_14_3661">
<rect width="44.8426" height="23.0803" fill="white" transform="translate(100.512 105.348)"/>
</clipPath>
<clipPath id="clip40_14_3661">
<rect width="58.0301" height="21.6562" fill="white" transform="translate(93.8516 117.238)"/>
</clipPath>
<clipPath id="clip41_14_3661">
<rect width="58.8498" height="20.6666" fill="white" transform="translate(159.469 119.516)"/>
</clipPath>
<clipPath id="clip42_14_3661">
<rect width="31.3898" height="38.791" fill="white" transform="translate(99.8711 283.094)"/>
</clipPath>
<clipPath id="clip43_14_3661">
<rect width="30.6851" height="38.9159" fill="white" transform="translate(180.074 283.031)"/>
</clipPath>
<clipPath id="clip44_14_3661">
<rect width="32.9913" height="79.3063" fill="white" transform="translate(26.7109 237.832)"/>
</clipPath>
<clipPath id="clip45_14_3661">
<rect width="32.8632" height="80.0115" fill="white" transform="translate(251.695 238.41)"/>
</clipPath>
<clipPath id="clip46_14_3661">
<rect width="34.2725" height="111.042" fill="white" transform="translate(173.602 486.906)"/>
</clipPath>
<clipPath id="clip47_14_3661">
<rect width="59.5125" height="91.167" fill="white" transform="translate(227.93 236.68)"/>
</clipPath>
<clipPath id="clip48_14_3661">
<rect width="34.2765" height="108.67" fill="white" transform="translate(102.75 486.523)"/>
</clipPath>
<clipPath id="clip49_14_3661">
<rect width="57.2063" height="88.5384" fill="white" transform="translate(25.2383 236.484)"/>
</clipPath>
<clipPath id="clip50_14_3661">
<rect width="16.1396" height="34.8136" fill="white" transform="translate(158.363 96.2109)"/>
</clipPath>
<clipPath id="clip51_14_3661">
<rect width="20.4354" height="12.63" fill="white" transform="translate(110.055 240.266)"/>
</clipPath>
<clipPath id="clip52_14_3661">
<rect width="16.4244" height="35.9656" fill="white" transform="translate(136.449 94.9922)"/>
</clipPath>
<clipPath id="clip53_14_3661">
<rect width="19.7307" height="12.6941" fill="white" transform="translate(180.91 240.203)"/>
</clipPath>
<clipPath id="clip54_14_3661">
<rect width="25.4962" height="16.102" fill="white" transform="translate(60.9844 221.664)"/>
</clipPath>
<clipPath id="clip55_14_3661">
<rect width="25.304" height="16.9408" fill="white" transform="translate(224.148 221.727)"/>
</clipPath>
<clipPath id="clip56_14_3661">
<rect width="25.8806" height="7.91444" fill="white" transform="translate(178.539 619.781)"/>
</clipPath>
<clipPath id="clip57_14_3661">
<rect width="25.837" height="8.2692" fill="white" transform="translate(105.957 619.812)"/>
</clipPath>
<clipPath id="clip58_14_3661">
<rect width="19.9229" height="22.1186" fill="white" transform="translate(106.406 132.176)"/>
</clipPath>
<clipPath id="clip59_14_3661">
<rect width="20.1151" height="22.2468" fill="white" transform="translate(184.754 132.047)"/>
</clipPath>
</defs>
</svg>
